<svg width="63" height="55" viewBox="0 0 63 55" fill="none" xmlns="http://www.w3.org/2000/svg">
<path d="M31.343 54.308C31.0538 54.308 30.7646 54.2519 30.5115 54.1397C30.1861 53.9995 -3.2546 38.6876 0.396764 1.58579C0.432916 1.13709 0.794437 0.716436 1.30057 0.52013C1.8067 0.29578 2.45747 0.323825 2.9636 0.548175C3.07206 0.604262 14.1707 5.42778 30.7645 0.464043C31.1622 0.351868 31.5961 0.351868 31.9937 0.464043C48.5876 5.42778 59.6863 0.604262 59.7947 0.548175C60.3008 0.323825 60.9154 0.323824 61.4216 0.52013C61.9277 0.744479 62.2892 1.13709 62.3254 1.58579C64.2414 20.936 55.9626 34.1726 48.7322 41.8846C40.851 50.2416 32.5722 53.9995 32.2106 54.1397C31.9214 54.2519 31.6322 54.308 31.343 54.308ZM3.61431 3.68907C1.62594 34.5372 26.3902 48.8955 31.343 51.4475C36.2959 48.8955 61.06 34.4811 59.0717 3.68907C54.7334 5.00712 44.7555 6.97019 31.343 3.10015C17.9306 6.97019 7.95257 5.00712 3.61431 3.68907Z" fill="#F5F5F5"/>
<path d="M31.3429 47.774C30.9814 47.774 30.6199 47.6899 30.3307 47.5216C7.26564 34.0606 7.01257 9.71841 7.01257 8.68078C7.01257 8.23208 7.33792 7.78338 7.8079 7.55903C8.31403 7.30663 8.92865 7.30663 9.47093 7.50294C18.039 10.8963 30.656 7.47489 30.7645 7.44685C31.126 7.33467 31.5237 7.33467 31.9214 7.44685C32.0298 7.47489 44.6831 10.9243 53.215 7.50294C53.7572 7.30663 54.3718 7.30663 54.878 7.55903C55.3841 7.81142 55.6733 8.23208 55.6733 8.68078C55.6733 9.71841 55.4202 34.0606 32.3552 47.5216C32.066 47.6899 31.7045 47.774 31.3429 47.774ZM10.5193 10.6999C11.0977 16.6172 14.243 34.2288 31.3429 44.8014C48.4429 34.2008 51.5881 16.6172 52.1665 10.6999C43.7431 12.8874 33.8374 10.6999 31.3429 10.083C28.8485 10.6999 18.9427 12.8874 10.5193 10.6999Z" fill="#F5F5F5"/>
</svg>
