<svg width="92" height="91" viewBox="0 0 92 91" fill="none" xmlns="http://www.w3.org/2000/svg">
<path d="M45.9974 4.2157C36.0957 4.17172 26.5809 8.05714 19.5403 15.0196C12.4997 21.982 8.50835 31.4529 8.44181 41.3544C8.43908 46.6246 9.56949 51.8337 11.7564 56.6287C13.9433 61.4237 17.1356 65.6924 21.1168 69.1456V74.7338C21.1337 77.9564 22.4283 81.0407 24.7165 83.3099C27.0048 85.5792 30.0998 86.848 33.3224 86.838H58.6724C61.8944 86.848 64.9888 85.5797 67.2769 83.3113C69.5651 81.0429 70.8601 77.9595 70.878 74.7376V69.1493C74.8597 65.6958 78.0523 61.4264 80.2392 56.6307C82.4261 51.8351 83.5563 46.6252 83.553 41.3544C83.4865 31.4529 79.4951 21.982 72.4545 15.0196C65.4139 8.05714 55.8991 4.17172 45.9974 4.2157ZM64.7752 64.4474C64.3313 64.7991 63.9727 65.2466 63.7262 65.7565C63.4797 66.2664 63.3517 66.8254 63.3518 67.3917V74.7376C63.336 75.9655 62.835 77.1372 61.9583 77.997C61.0816 78.8568 59.9004 79.3349 58.6724 79.3269H57.2641V68.8173C57.2641 67.8212 56.8684 66.866 56.1641 66.1617C55.4598 65.4574 54.5046 65.0617 53.5085 65.0617C52.5125 65.0617 51.5572 65.4574 50.8529 66.1617C50.1486 66.866 49.753 67.8212 49.753 68.8173V79.3269H42.2418V68.0602C42.2418 67.0642 41.8462 66.1089 41.1419 65.4046C40.4376 64.7003 39.4823 64.3046 38.4863 64.3046C37.4902 64.3046 36.535 64.7003 35.8307 65.4046C35.1264 66.1089 34.7307 67.0642 34.7307 68.0602V79.3269H33.3224C32.0919 79.3389 30.9067 78.8626 30.0268 78.0024C29.1468 77.1421 28.6438 75.9681 28.6279 74.7376V67.3917C28.6298 66.8266 28.5042 66.2683 28.2603 65.7585C28.0165 65.2487 27.6607 64.8006 27.2196 64.4474C23.7133 61.7046 20.8768 58.2002 18.9249 54.1993C16.9729 50.1985 15.9566 45.806 15.9529 41.3544C15.9529 33.3861 19.1183 25.7442 24.7527 20.1098C30.3872 14.4753 38.0291 11.31 45.9974 11.31C53.9657 11.31 61.6076 14.4753 67.2421 20.1098C72.8765 25.7442 76.0419 33.3861 76.0419 41.3544C76.0382 45.806 75.7536 50.1985 73.8016 54.1993C71.8497 58.2002 68.2815 61.7046 64.7752 64.4474Z" fill="#FFF9F9"/>
<path d="M34.7307 56.7932C38.879 56.7932 42.2418 53.4304 42.2418 49.2821C42.2418 45.1338 38.879 41.771 34.7307 41.771C30.5824 41.771 27.2196 45.1338 27.2196 49.2821C27.2196 53.4304 30.5824 56.7932 34.7307 56.7932Z" fill="#FFF9F9"/>
<path d="M57.2641 56.7932C61.4124 56.7932 64.7752 53.4304 64.7752 49.2821C64.7752 45.1338 61.4124 41.771 57.2641 41.771C53.1158 41.771 49.753 45.1338 49.753 49.2821C49.753 53.4304 53.1158 56.7932 57.2641 56.7932Z" fill="#FFF9F9"/>
</svg>
