<svg width="96" height="97" viewBox="0 0 96 97" fill="none" xmlns="http://www.w3.org/2000/svg">
<path d="M81.0018 48.7044C81.143 48.941 81.3795 49.1041 81.6494 49.1547L84.4632 49.6697C84.8772 49.7412 85.2863 49.5448 85.48 49.1728L89.4755 41.5518C89.6233 41.2704 89.6205 40.9328 89.4688 40.6533L82.2427 27.3609C82.1931 27.2808 80.956 25.2997 77.8971 25.5067C77.2399 25.5544 76.1583 25.6698 74.9269 25.8119C75.689 25.0851 76.2432 24.1332 76.4435 23.0315C76.5036 22.7044 76.5303 22.4049 76.5236 22.1311L76.5189 15.5059C76.5217 15.0967 76.4626 14.7247 76.3739 14.3814C76.3739 14.2936 76.3739 14.2059 76.35 14.1172C76.3243 14.0284 76.2718 13.9569 76.2232 13.8835C75.5422 11.8404 73.6145 10.4202 71.4188 10.4097C68.9589 10.4125 66.8519 12.179 66.4094 14.6093C66.3855 14.7409 66.3874 14.8573 66.3741 14.9823C66.3197 15.0757 66.273 15.1768 66.2529 15.2894C66.2186 15.4802 66.2587 15.6595 66.3292 15.8254L66.335 22.1483C66.3445 23.8489 67.1953 25.4275 68.6098 26.3708C68.7138 26.4405 68.8282 26.4939 68.936 26.5549C67.7037 26.7142 66.8329 26.8306 66.7461 26.843C66.5047 26.8544 64.3386 27.0385 62.6017 29.9925C61.4886 31.8839 60.014 34.67 59.2662 36.1017L52.5103 31.8801C52.2299 31.7046 51.8846 31.6922 51.5966 31.8276L48.9526 28.3014C48.6379 27.8807 48.0398 27.7939 47.6182 28.1106C47.1966 28.4263 47.1117 29.0244 47.4275 29.4459L50.2012 33.1439L49.4238 33.9212C49.2273 34.1187 49.1253 34.3924 49.1472 34.67C49.1691 34.9476 49.3112 35.2032 49.5373 35.3663L54.2387 38.7848C51.5003 38.0484 49.3895 37.4885 49.3895 37.4885L49.0804 37.4074L48.6426 37.5276C48.6426 37.5276 47.9063 37.7775 46.9525 38.1629V14.2249H51.0539C51.5813 14.2249 52.0077 13.7976 52.0077 13.2711C52.0077 12.7446 51.5813 12.3173 51.0539 12.3173H41.5157C40.9892 12.3173 40.2757 13.0861 40.2757 13.6126V15.6051C39.3219 15.9037 38.3681 17.032 38.3681 18.3817V22.1969C38.3652 23.7745 39.7645 24.7169 41.1313 24.7169H41.8944C43.2621 24.7169 44.0881 23.7745 44.0881 22.1969V18.3817C44.0881 17.032 43.1343 15.9046 42.1805 15.6051V14.2249H45.042V36.2152L42.2463 31.9888C41.7322 31.2544 40.973 30.8118 40.0907 30.7737L35.6345 22.6872C35.4056 22.2751 34.9286 22.0911 34.4842 22.257L11.6012 30.8414C11.5487 30.8614 11.5134 30.9005 11.4657 30.9282C11.4342 30.9463 11.3989 30.9492 11.3694 30.9711L7.55507 33.8325C7.20978 34.091 7.08197 34.5489 7.24221 34.9495L12.6122 48.3725L8.72921 49.9263C8.72635 49.9263 8.72349 49.9301 8.71968 49.932C8.70251 49.9377 8.69011 49.952 8.67389 49.9587C7.91752 50.3059 7.84312 50.7885 7.84312 50.8105V54.6257V65.731H7.17545C5.97555 65.731 5.93549 66.5008 5.93549 67.0254V70.8406C5.93549 71.3681 6.64894 71.4539 7.17545 71.4539H10.4661C10.9926 71.4539 11.6584 71.3681 11.6584 70.8406V67.0254C11.6584 66.5008 11.5392 65.731 10.6645 65.731H9.75075V55.9039L59.3492 70.6003V80.9921H58.2018C57.6753 80.9921 57.4416 81.7618 57.4416 82.2864V86.1017C57.4416 86.6292 58.155 86.715 58.6815 86.715H62.0619C62.5884 86.715 63.1645 86.6292 63.1645 86.1017V82.2864C63.1645 81.7618 63.1645 80.9921 62.4968 80.9921H61.2568V70.5755L65.2209 69.3021L65.2858 85.9329C65.2858 86.4603 65.7846 86.716 66.3111 86.716H69.1726C69.6733 86.716 70.0901 86.3277 70.1245 85.8279L71.972 59.0543H72.1284L74.9021 85.8604C74.9508 86.3459 75.3619 86.715 75.8502 86.715H78.7117C79.2382 86.715 79.3794 86.6292 79.3794 86.1017V62.9449L83.1946 61.6735V71.4539H82.1015C81.576 71.4539 81.287 72.2237 81.287 72.7483V76.5635C81.287 77.091 82.0005 77.1768 82.527 77.1768H85.8386C86.3632 77.1768 87.0099 77.091 87.0099 76.5635V72.7483C87.0099 72.2227 86.7619 71.474 86.2344 71.474L85.1023 71.4539V60.3486V56.5334C85.1023 57.4424 85.272 55.7589 84.6511 55.611C84.6397 55.6091 84.6311 55.6005 84.6215 55.5977L82.2217 55.1465C82.3219 54.9949 82.2408 50.8095 82.2408 50.8095C82.2856 50.0808 81.9642 49.5686 81.6227 49.3988L79.3794 48.3143V47.9662L79.718 36.4098L83.0344 41.2017L80.8769 47.9204C80.7929 48.1827 80.8606 48.4679 81.0018 48.7044ZM42.1805 22.1969C42.1805 22.7425 41.8944 22.8093 41.6244 22.8093H40.9291C40.6582 22.8093 40.2729 22.7425 40.2729 22.1969V18.3817C40.2729 17.8361 40.3129 17.0864 40.7298 17.0864H41.7236C42.2005 17.0864 42.1805 17.8361 42.1805 18.3817V22.1969ZM9.75075 69.5463H7.84312V67.6387H9.75075V69.5463ZM61.2568 84.8074H59.3492V82.8997H61.2568V84.8074ZM85.1023 75.2692H83.1946V73.3616H85.1023V75.2692ZM79.3794 59.1297L83.1946 57.8582V59.6638L79.3794 60.9343V59.1297ZM79.6655 57.1181V56.5525L80.7252 56.7652L79.6655 57.1181ZM80.3332 53.939L79.3794 54.2566V52.452L80.3332 52.1344V53.939ZM85.0651 41.3496C85.1566 41.0701 85.1137 40.763 84.9477 40.5188L79.7504 32.8406C79.5158 32.4962 79.0875 32.3417 78.6888 32.461C78.2901 32.5802 77.8704 32.9426 77.8637 33.3585L77.4717 47.95V51.7653V55.5805V58.442V62.2572V84.8074H76.7106L73.9378 58.0013C73.8873 57.5158 73.4781 57.1467 72.9888 57.1467H71.0812C70.5814 57.1467 70.1645 57.5349 70.1302 58.0356L68.2836 84.8074H66.9797V67.9792V64.1639V60.3486V56.2682V55.5796V43.1838L67.1514 33.3213C67.1533 32.8978 66.9464 32.5249 66.54 32.4037C66.1337 32.2826 65.7331 32.4447 65.5032 32.8015L60.3164 40.8641L51.5527 34.483L52.1384 33.9012L59.1279 38.2687C59.353 38.4099 59.6287 38.45 59.8862 38.3794C60.1447 38.3088 60.3593 38.1333 60.4823 37.8968C60.5043 37.8529 62.7477 33.5035 64.2432 30.9616C65.4546 28.9023 66.7976 28.7544 66.9149 28.743C67.0007 28.7315 75.6146 27.5908 78.0383 27.4134C79.8439 27.276 80.5888 28.3195 80.5926 28.3195L87.5507 41.1207L84.116 47.6686L83.0659 47.4759L85.0651 41.3496ZM12.8983 50.3126V50.9469L11.9875 50.6769L12.8983 50.3126ZM27.0539 27.0881C26.5045 28.1869 26.5026 29.4545 27.1827 30.4341L29.3555 33.5702C29.9411 34.4153 30.9169 34.8999 32.0329 34.8999C32.6156 34.8999 33.2089 34.7568 33.7593 34.4993L29.7914 37.2463C28.4952 38.1438 28.1728 39.9332 29.0741 41.2361L30.9331 43.9106L16.1137 39.5888L13.1921 32.2864L27.0539 27.0881ZM29.5024 27.0843C29.8934 26.8134 30.3456 26.6656 30.7757 26.6656C31.2565 26.6656 31.6618 26.8506 31.886 27.1739L34.0597 30.3101C34.5013 30.9472 34.157 31.9831 33.3072 32.5725C32.4792 33.1448 31.3471 33.0962 30.9236 32.4829L28.7508 29.3467C28.3082 28.7105 28.6525 27.6737 29.5024 27.0843ZM65.3754 41.8704C64.6915 41.6586 63.7587 41.3925 62.492 41.0367L65.3773 36.5681L65.3754 41.8704ZM60.6187 58.3294L60.8915 58.3161L60.8858 58.3075L65.0721 56.9035V59.6619L60.2811 61.2586L56.4878 60.175V57.4576L60.201 58.1005H60.2735L60.6187 58.3294ZM43.1343 59.9891V58.3428L54.5801 61.6134V63.3818L43.1343 59.9891ZM27.8733 55.4689V53.9829L41.2267 57.7981V59.4263L27.8733 55.4689ZM43.1343 56.3598V53.8961L54.5801 56.9483V59.6304L43.1343 56.3598ZM41.2267 53.3896V55.8152L27.8733 51.9999V49.829L41.2267 53.3896ZM33.3863 47.6467C33.7173 48.1217 34.55 48.4765 34.55 48.6806V49.5743L27.8733 47.8174V45.0895L32.4506 46.4029L33.3863 47.6467ZM25.9656 47.3147L18.2321 45.2421L16.7995 41.837L25.9656 44.5315V47.3147ZM16.6392 46.3962C16.6955 46.5355 16.8538 46.6585 16.9635 46.7558C17.0045 46.793 17.3813 46.9799 17.3813 46.9799L25.9656 49.3187V51.4543L14.5198 48.1837V41.4573L16.6392 46.3962ZM25.9656 54.9033L14.5198 51.5106V50.1676L25.9656 53.4373V54.9033ZM60.2859 65.0738L56.4878 63.9464V62.158L60.1838 63.1729C60.3679 63.2263 60.4947 63.2215 60.6779 63.1595L65.0721 61.6725V63.4772L60.2859 65.0738ZM43.1343 51.8788V49.539L54.5801 52.8774V54.9605L43.1343 51.8788ZM41.2267 51.3646L36.4576 50.0808V47.9223V47.5933L41.2267 48.9839V51.3646ZM12.6122 43.9516L11.2215 40.1163C11.3141 40.1878 11.3455 40.246 11.4629 40.2803L12.6122 40.6371V43.9516ZM60.8429 43.591L61.2654 42.7154C63.505 43.345 65.0712 43.6778 65.0712 43.8533V54.8928L60.2725 56.4933L56.4878 55.4727V53.4335L57.3176 53.6347C57.4072 53.6595 57.5684 53.6738 57.6552 53.6738C58.0692 53.6738 58.486 53.403 58.6071 52.9861C58.754 52.4797 58.4812 51.9503 57.9757 51.8034L37.0871 45.7066L37.3704 44.5935C37.5602 44.3884 37.8054 44.191 38.1268 44.0298C38.1516 44.0174 38.1888 44.0002 38.2355 43.9783C38.9404 43.654 42.1147 42.3291 46.7026 40.4454C47.8328 39.977 48.7561 39.5984 49.2063 39.4143C50.37 39.7233 54.6269 40.8574 58.5661 41.9362L60.8429 43.591ZM42.1862 40.246C42.1328 40.2679 42.0804 40.2899 42.027 40.3118C41.9621 40.3385 41.8982 40.3652 41.8333 40.3919C40.4608 40.9614 39.1674 41.5012 38.2975 41.8732C38.2909 41.8761 38.2832 41.8789 38.2765 41.8818C38.1573 41.9324 38.0457 41.981 37.9437 42.0249C37.9303 42.0306 37.9179 42.0363 37.9046 42.042C37.812 42.0821 37.7252 42.1203 37.6499 42.1536C37.6289 42.1632 37.6127 42.1699 37.5927 42.1794C37.5307 42.2071 37.4687 42.2347 37.421 42.2567C37.3962 42.2681 37.3819 42.2757 37.3609 42.2853C37.3304 42.3005 37.2913 42.3177 37.2712 42.3282C36.1877 42.87 35.5887 43.6559 35.2549 44.3655C35.2358 44.4056 35.2196 44.4447 35.2024 44.4848C35.17 44.5601 35.1394 44.6326 35.1127 44.7051C35.0917 44.7604 35.0708 44.8157 35.0526 44.8692C35.0422 44.9006 35.0345 44.9302 35.025 44.9607C35.0107 45.0046 34.9964 45.0504 34.9849 45.0923L33.847 44.7604L30.6422 40.1497C30.3398 39.7128 30.4457 39.1148 30.8778 38.8153L39.485 32.8539C39.5985 32.7786 39.7063 32.7299 39.8255 32.7004C39.899 32.6832 39.9734 32.6737 40.0478 32.6737C40.3606 32.6737 40.6439 32.8234 40.8251 33.0819L45 39.0862C44.1215 39.4467 43.1439 39.8492 42.1862 40.246ZM38.3023 31.3526L34.9668 33.6618C36.2306 32.4152 36.5482 30.5524 35.6268 29.2227L33.4531 26.0866C33.1622 25.6679 32.7749 25.3379 32.3228 25.1118L34.4021 24.3325L38.3023 31.3526ZM11.521 33.245L13.7863 38.9088L12.2116 38.45C11.708 38.304 11.1767 38.593 11.0289 39.0986C11.0146 39.1482 11.0222 39.1968 11.0165 39.2464L9.28624 34.9208L11.521 33.245ZM9.75075 52.0886L59.3492 66.785V68.6106L9.75075 53.9142V52.0886ZM61.2568 66.7602L65.0721 65.4888V67.2943L61.2568 68.5648V66.7602ZM71.415 12.3173C72.5481 12.323 73.5687 12.9335 74.1381 13.8892L70.9543 15.236L68.3504 14.7162C68.7157 13.3169 69.9642 12.3192 71.415 12.3173ZM72.1676 22.7025C72.2792 22.5327 72.3335 22.3314 72.324 22.1283L72.0445 16.847L74.6112 15.7606L74.616 22.1521C74.6189 22.3143 74.6026 22.4907 74.5664 22.6929C74.2888 24.2162 72.9726 25.3226 71.4341 25.3264C71.1222 25.3245 70.8198 25.2787 70.5318 25.191L72.1676 22.7025ZM68.2369 16.64L70.1426 17.0196L70.4011 21.9165L68.957 24.1112C68.5116 23.5561 68.2445 22.8713 68.2397 22.1416L68.2369 16.64Z" fill="#FFE3E3"/>
</svg>
