<svg width="29" height="25" viewBox="0 0 29 25" fill="none" xmlns="http://www.w3.org/2000/svg">
<path d="M28.0862 12.4828C28.0862 18.9218 21.88 24.1316 14.2354 24.1316C6.57911 24.1316 0.384521 18.9121 0.384521 12.4828C0.384521 6.04375 6.59071 0.833984 14.2354 0.833984C21.8916 0.833984 28.0862 6.04375 28.0862 12.4828Z" fill="#3E479C"/>
<path d="M16.6481 12.7367L12.8316 14.327C12.6808 14.3953 12.1704 14.3074 12.1704 14.1611V10.9025C12.1704 10.7562 12.6808 10.6684 12.8316 10.7367L16.4857 12.405C16.6481 12.4733 16.7989 12.6586 16.6481 12.7367ZM21.6479 10.8147C21.6479 9.2732 20.163 8.01465 18.3186 8.01465H9.81548C7.98262 8.01465 6.48618 9.26345 6.48618 10.8147V14.1416C6.48618 15.6831 7.97102 16.9416 9.81548 16.9416H18.3186C20.1514 16.9416 21.6479 15.6928 21.6479 14.1416V10.8147Z" fill="white"/>
</svg>
