<svg width="33" height="27" viewBox="0 0 33 27" fill="none" xmlns="http://www.w3.org/2000/svg">
<path d="M30.8904 8.26702C28.4539 3.45907 22.7847 0.14502 16.3736 0.14502C7.65543 0.14502 0.727142 6.19501 0.727142 13.4069C0.727142 20.6761 7.72348 26.5601 16.3736 26.5601C24.9557 26.5601 32.1358 20.7276 32.1358 13.4069C32.1426 11.6268 31.7207 9.89829 30.8904 8.26702Z" fill="#3E479C"/>
<path d="M16.4349 10.923C16.1218 10.923 15.8632 10.7055 15.8632 10.4422C15.8632 10.1789 16.1218 9.96137 16.4349 9.96137C16.7275 9.96137 16.9658 10.1502 16.9998 10.3849C16.993 10.4307 16.993 10.4708 16.993 10.5166C16.9521 10.7455 16.7207 10.923 16.4349 10.923ZM14.2843 13.2698C15.4617 13.9051 16.9113 13.9738 18.252 13.4529C18.5379 13.3442 18.6672 13.058 18.5311 12.8176C18.4018 12.5772 18.0615 12.4741 17.7756 12.5829C16.7888 12.9607 15.7407 12.9206 14.8968 12.4627C14.0733 12.0162 13.5765 11.2607 13.5765 10.4422C13.5765 9.11996 14.856 8.04388 16.4281 8.04388C18.0002 8.04388 19.2797 9.11996 19.2797 10.4422C19.2797 10.7055 19.0211 10.923 18.708 10.923C18.4222 10.923 18.1499 10.7398 18.1363 10.4479C18.1363 10.4422 18.1363 10.4422 18.1363 10.4422C18.1363 9.64655 17.3673 9.00548 16.4213 9.00548C15.4753 9.00548 14.713 9.65228 14.713 10.4422C14.713 11.2378 15.4821 11.8846 16.4213 11.8846C16.8569 11.8846 17.2584 11.7472 17.5647 11.5183C17.8641 11.7472 18.2656 11.8846 18.708 11.8846C19.654 11.8846 20.4163 11.2378 20.4163 10.4422C20.4163 8.59337 18.6264 7.08228 16.4213 7.08228C14.2162 7.08228 12.4263 8.58764 12.4263 10.4422C12.4399 11.5927 13.1341 12.6516 14.2843 13.2698Z" fill="white"/>
<path d="M23.8532 19.9035L19.5248 16.2632L23.8532 12.6228V19.9035ZM9.82654 20.5789L14.3932 16.7382H18.4835L23.0501 20.5789H9.82654ZM9.01665 19.9035V12.6228L13.3451 16.2632L9.01665 19.9035ZM10.16 12.2279L9.25485 11.4667L10.16 10.7054V12.2279ZM21.5665 6.12067V9.54346V13.1838L18.4767 15.7824H14.3864L11.2966 13.1838V9.54346V6.12067H21.5665ZM23.615 11.4667L22.7099 12.2279V10.7054L23.615 11.4667ZM24.9898 11.4667C24.9898 11.3407 24.9285 11.2205 24.8196 11.129L22.7031 9.34886V5.64559C22.7031 5.3823 22.4444 5.16479 22.1314 5.16479H10.7181C10.405 5.16479 10.1464 5.3823 10.1464 5.64559V9.34886L8.02982 11.129L8.02301 11.1347C7.91412 11.2262 7.85968 11.3522 7.85968 11.4667V20.1038C7.85968 20.8994 8.62872 21.5405 9.57473 21.5405H23.2679C24.2139 21.5405 24.983 20.8937 24.983 20.1038V11.4667C24.9898 11.4667 24.9898 11.4667 24.9898 11.4667Z" fill="white"/>
</svg>
