<svg width="29" height="24" viewBox="0 0 29 24" fill="none" xmlns="http://www.w3.org/2000/svg">
<path d="M28.0862 12.2548C28.0862 18.6938 21.88 23.9036 14.2353 23.9036C6.57908 23.9036 0.384491 18.684 0.384491 12.2548C0.384491 5.81574 6.59068 0.605971 14.2353 0.605971C21.8916 0.596215 28.0862 5.81574 28.0862 12.2548Z" fill="#3E479C"/>
<path d="M21.8916 8.25488C21.416 8.44025 20.8824 8.54757 20.3603 8.62562C20.6039 8.58659 20.9636 8.21585 21.1144 8.06951C21.3348 7.83536 21.5204 7.57195 21.6248 7.28902C21.6364 7.26951 21.648 7.24023 21.6248 7.22072C21.59 7.21096 21.5668 7.21097 21.5436 7.23048C20.9636 7.4939 20.3719 7.67928 19.7339 7.81586C19.6759 7.82562 19.6411 7.81587 19.6063 7.7866C19.5483 7.73782 19.5019 7.68902 19.4439 7.65C19.1771 7.45487 18.8871 7.30854 18.5623 7.20122C18.1331 7.05487 17.6691 6.99633 17.2166 7.01585C16.7758 7.03536 16.335 7.14268 15.9406 7.31829C15.5462 7.4939 15.1866 7.73782 14.9082 8.0305C14.6182 8.33295 14.3978 8.68417 14.2934 9.06466C14.189 9.42564 14.2006 9.78662 14.2586 10.1574C14.2702 10.2159 14.2586 10.2256 14.2005 10.2159C11.7065 9.90369 9.65321 9.15245 7.97116 7.55243C7.90156 7.48413 7.85516 7.48414 7.79716 7.56219C7.06634 8.48904 7.42594 9.97198 8.33077 10.7037C8.45837 10.8013 8.57438 10.8988 8.71358 10.9866C8.66718 10.9964 8.05237 10.9378 7.50715 10.7037C7.43755 10.6647 7.40274 10.6842 7.39114 10.7525C7.37954 10.85 7.39115 10.9476 7.41435 11.0549C7.55355 11.9915 8.33077 12.8598 9.38641 13.1915C9.51401 13.2403 9.65321 13.2793 9.78081 13.2989C9.53721 13.3476 9.29359 13.3769 8.59757 13.3281C8.51637 13.3184 8.48158 13.3476 8.51638 13.4159C9.0384 14.6062 10.152 14.9574 10.9873 15.1623C11.1033 15.1818 11.2077 15.1818 11.3237 15.2013C11.3121 15.2111 11.3121 15.2111 11.3005 15.2208C11.022 15.5818 10.0592 15.8452 9.60682 15.9721C8.79479 16.216 7.90156 16.3233 7.04313 16.2452C6.90392 16.2257 6.88073 16.2257 6.83433 16.2452C6.79953 16.2647 6.83433 16.294 6.86913 16.3233C7.04314 16.4209 7.22873 16.5087 7.40274 16.5867C7.94795 16.8306 8.51638 17.0257 9.1196 17.1623C12.2053 17.8745 15.6738 17.3477 17.9939 15.4159C19.8151 13.894 20.4531 11.7964 20.4531 9.69881C20.4531 9.62076 20.5691 9.57197 20.6388 9.53294C21.1144 9.2305 21.4972 8.87929 21.8452 8.47928C21.9264 8.39148 21.9264 8.31343 21.9264 8.27441C21.9264 8.26465 21.9264 8.26464 21.9264 8.26464C21.9496 8.22562 21.9496 8.23536 21.8916 8.25488Z" fill="white"/>
</svg>
