<svg width="27" height="23" viewBox="0 0 27 23" fill="none" xmlns="http://www.w3.org/2000/svg">
<path d="M26.5466 11.2558C26.5466 17.3075 20.6762 22.2142 13.4315 22.2142C6.18689 22.2142 0.316528 17.3075 0.316528 11.2558C0.316528 5.20408 6.18689 0.297363 13.4315 0.297363C20.6762 0.297363 26.5466 5.20408 26.5466 11.2558Z" fill="#3E479C"/>
<path d="M11.0124 9.53722L10.2274 10.193C9.90056 10.4658 9.37297 10.4658 9.04612 10.193L6.83797 8.34677C6.51112 8.07405 6.51112 7.6325 6.83797 7.35978L7.62292 6.70395C8.55971 5.92258 10.0756 5.92258 11.0124 6.70395C11.9491 7.48748 11.9491 8.75369 11.0124 9.53722Z" fill="white"/>
<path d="M18.7486 15.9999L17.9662 16.6557C17.6393 16.9284 17.1117 16.9284 16.7849 16.6557L14.5767 14.8094C14.2499 14.5367 14.2499 14.0951 14.5767 13.8224L15.3591 13.1666C16.2959 12.3852 17.8118 12.3852 18.7486 13.1666C19.6828 13.9501 19.6828 15.2185 18.7486 15.9999Z" fill="white"/>
<path d="M17.5956 14.1301L18.7485 13.1691L11.0123 6.7041L9.86188 7.66725L17.5956 14.1301Z" fill="white"/>
</svg>
