<svg width="27" height="23" viewBox="0 0 27 23" fill="none" xmlns="http://www.w3.org/2000/svg">
<path d="M25.754 7.17771C23.6775 3.0802 18.8459 0.255859 13.3822 0.255859C5.95209 0.255859 0.0474854 5.41188 0.0474854 11.5582C0.0474854 17.7532 6.01009 22.7678 13.3822 22.7678C20.6962 22.7678 26.8154 17.7971 26.8154 11.5582C26.8212 10.046 26.4616 8.57282 25.754 7.17771Z" fill="#454FAF" fill-opacity="0.86"/>
<path d="M18.0978 11.5385L13.5214 17.9677L8.82327 11.597C8.29545 10.88 8.00544 10.0507 8.00544 9.19702C8.00544 6.67996 10.4473 4.62632 13.4402 4.62632C16.4331 4.62632 18.8692 6.67996 18.8692 9.19702C18.8634 10.0263 18.5966 10.836 18.0978 11.5385ZM13.4344 3.72388C9.8441 3.72388 6.92081 6.18241 6.92081 9.20191C6.92081 10.2214 7.25721 11.2165 7.89524 12.0799L13.0632 19.0848C13.1618 19.2214 13.3358 19.2994 13.5214 19.2994H13.5272C13.7186 19.2994 13.8926 19.2116 13.9854 19.075L19.02 12.0019C19.6232 11.158 19.9365 10.1873 19.9365 9.19702C19.9481 6.1824 17.0247 3.72388 13.4344 3.72388Z" fill="white"/>
<path d="M13.4344 11.0362C12.2337 11.0362 11.2593 10.2118 11.2593 9.2069C11.2593 8.20198 12.2395 7.37269 13.4344 7.37269C14.6292 7.37269 15.6094 8.1971 15.6094 9.2069C15.6094 10.1972 14.6582 11.0362 13.4344 11.0362ZM13.4344 6.46533C11.6421 6.46533 10.1805 7.69466 10.1805 9.20203C10.1805 10.6997 11.6189 11.9387 13.4344 11.9387C15.273 11.9387 16.6883 10.685 16.6883 9.20203C16.6883 7.69466 15.2324 6.46533 13.4344 6.46533Z" fill="white"/>
</svg>
