<svg width="72" height="61" viewBox="0 0 72 61" fill="none" xmlns="http://www.w3.org/2000/svg">
<path d="M26.0444 50.36C25.6486 50.36 25.2529 50.2207 24.9561 49.9701L12.8855 39.7767C12.2919 39.2754 12.2919 38.4399 12.8855 37.9386L44.8427 10.9512C45.4364 10.4499 46.4257 10.4499 47.0194 10.9512L59.0899 21.1446C59.6835 21.6459 59.6835 22.4814 59.0899 22.9827L27.1327 49.9701C26.8359 50.2486 26.4401 50.36 26.0444 50.36ZM16.1835 38.8855L26.0444 47.2129L55.8249 22.0636L45.964 13.7363L16.1835 38.8855Z" fill="#FCFAFF"/>
<path d="M13.6441 53.8692C13.2483 53.8692 12.8526 53.73 12.5558 53.4793L8.73014 50.2764C8.1365 49.7751 8.1365 48.9395 8.73014 48.4382L17.008 41.4475C17.6016 40.9462 18.591 40.9462 19.1846 41.4475L22.9773 44.6504C23.2741 44.9011 23.439 45.2353 23.439 45.5695C23.439 45.9037 23.2741 46.238 22.9773 46.4886L14.6994 53.4793C14.4356 53.7579 14.0398 53.8692 13.6441 53.8692ZM12.0281 49.3573L13.6441 50.722L19.7453 45.5695L18.1293 44.2048L12.0281 49.3573Z" fill="#FCFAFF"/>
<path d="M14.4026 60.1915C14.0069 60.1915 13.6111 60.0522 13.3143 59.8016L1.24381 49.6081C0.650176 49.1067 0.650176 48.2712 1.24381 47.7699L4.57475 44.9569C5.16838 44.4556 6.15775 44.4556 6.75138 44.9569L18.8219 55.1504C19.4155 55.6517 19.4155 56.4873 18.8219 56.9886L15.4909 59.8016C15.2271 60.0522 14.8314 60.1915 14.4026 60.1915ZM4.54175 48.689L14.4026 57.0164L15.5569 56.0417L5.69604 47.7142L4.54175 48.689Z" fill="#FCFAFF"/>
<path d="M58.0015 23.3728C57.6057 23.3728 57.21 23.2335 56.9132 22.9829L44.8427 12.7895C44.4469 12.4553 44.315 11.9819 44.4469 11.5362C44.5788 11.0906 45.0076 10.7286 45.5352 10.6172C60.8707 6.96875 62.3878 6.80165 63.1133 7.58147C64.0367 8.16634 63.8389 9.47531 59.5185 22.4259C59.3537 22.8715 58.9579 23.2335 58.4302 23.3449C58.2653 23.3449 58.1334 23.3728 58.0015 23.3728ZM48.9321 12.5389L57.243 19.5572C58.4632 15.7974 59.6175 12.0933 60.1781 10.0602C57.7706 10.5336 53.3844 11.5084 48.9321 12.5389Z" fill="#FCFAFF"/>
<path d="M61.9591 9.86506C61.5633 9.86506 61.1676 9.72582 60.8708 9.47516C60.2771 8.97384 60.2771 8.1383 60.8708 7.63698L68.9837 0.785656C69.5773 0.284339 70.5667 0.284339 71.1603 0.785656C71.7539 1.28697 71.7539 2.1225 71.1603 2.62381L63.0474 9.47516C62.7506 9.75367 62.3548 9.86506 61.9591 9.86506Z" fill="#FCFAFF"/>
<path d="M47.646 21.9245C47.2503 21.9245 46.8545 21.7852 46.5577 21.5346L40.5225 16.4378C39.9289 15.9365 39.9289 15.1009 40.5225 14.5996C41.1161 14.0983 42.1055 14.0983 42.6991 14.5996L48.7343 19.6964C49.3279 20.1977 49.3279 21.0332 48.7343 21.5346C48.4375 21.8131 48.0418 21.9245 47.646 21.9245Z" fill="#FCFAFF"/>
<path d="M40.9181 24.6539C40.5223 24.6539 40.1266 24.5146 39.8298 24.2639L35.5755 20.6711C34.9818 20.1698 34.9818 19.3342 35.5755 18.8329C36.1691 18.3316 37.1585 18.3316 37.7521 18.8329L42.0064 22.4257C42.6001 22.9271 42.6001 23.7626 42.0064 24.2639C41.7096 24.5146 41.3138 24.6539 40.9181 24.6539Z" fill="#FCFAFF"/>
<path d="M38.1479 29.9454C37.7522 29.9454 37.3564 29.8061 37.0596 29.5554L31.0244 24.4587C30.4308 23.9573 30.4308 23.1218 31.0244 22.6205C31.618 22.1192 32.6074 22.1192 33.201 22.6205L39.2363 27.7173C39.8299 28.2186 39.8299 29.0541 39.2363 29.5554C38.9394 29.834 38.5437 29.9454 38.1479 29.9454Z" fill="#FCFAFF"/>
<path d="M31.4201 32.675C31.0243 32.675 30.6285 32.5357 30.3317 32.2851L26.0774 28.6924C25.4837 28.1911 25.4837 27.3556 26.0774 26.8543C26.671 26.3529 27.6604 26.3529 28.254 26.8543L32.5084 30.4469C33.102 30.9483 33.102 31.7838 32.5084 32.2851C32.2116 32.5357 31.8158 32.675 31.4201 32.675Z" fill="#FCFAFF"/>
<path d="M28.6498 37.9667C28.254 37.9667 27.8582 37.8275 27.5614 37.5768L21.5262 32.48C20.9325 31.9787 20.9325 31.1432 21.5262 30.6419C22.1198 30.1405 23.1092 30.1405 23.7028 30.6419L29.7381 35.7386C30.3317 36.2399 30.3317 37.0755 29.7381 37.5768C29.4413 37.8553 29.0455 37.9667 28.6498 37.9667Z" fill="#FCFAFF"/>
<path d="M21.9218 40.6959C21.5261 40.6959 21.1303 40.5566 20.8335 40.3059L16.5791 36.713C15.9855 36.2117 15.9855 35.3761 16.5791 34.8748C17.1728 34.3734 18.1622 34.3734 18.7558 34.8748L23.0101 38.4677C23.6038 38.969 23.6038 39.8046 23.0101 40.3059C22.7133 40.5566 22.3176 40.6959 21.9218 40.6959Z" fill="#FCFAFF"/>
</svg>
