<svg width="82" height="67" viewBox="0 0 82 67" fill="none" xmlns="http://www.w3.org/2000/svg">
<path d="M73.7937 66.318H8.83022C4.50492 66.318 0.935486 63.3514 0.935486 59.6785V21.8895C0.935486 18.2519 4.46292 15.25 8.83022 15.25H73.7937C78.119 15.25 81.6884 18.2166 81.6884 21.8895V59.6785C81.6884 63.3514 78.161 66.318 73.7937 66.318ZM8.83022 18.6051C6.64657 18.6051 4.88286 20.0884 4.88286 21.9249V59.7138C4.88286 61.5502 6.64657 63.0335 8.83022 63.0335H73.7937C75.9773 63.0335 77.7411 61.5502 77.7411 59.7138V21.8895C77.7411 20.0531 75.9773 18.5698 73.7937 18.5698H8.83022V18.6051Z" fill="white"/>
<path d="M47.59 57.3832H35.034C33.9422 57.3832 33.0603 56.6415 33.0603 55.7233V47.7417H23.5699C22.4781 47.7417 21.5962 47 21.5962 46.0818V35.5221C21.5962 34.6038 22.4781 33.8622 23.5699 33.8622H33.0603V25.8806C33.0603 24.9624 33.9422 24.2207 35.034 24.2207H47.59C48.6818 24.2207 49.5637 24.9624 49.5637 25.8806V33.8622H59.0541C60.146 33.8622 61.0278 34.6038 61.0278 35.5221V46.0818C61.0278 47 60.146 47.7417 59.0541 47.7417H49.5637V55.7233C49.5637 56.6415 48.6818 57.3832 47.59 57.3832ZM37.0077 54.0634H45.6163V46.0818C45.6163 45.1636 46.4982 44.4219 47.59 44.4219H57.0805V37.182H47.59C46.4982 37.182 45.6163 36.4403 45.6163 35.5221V27.5405H37.0077V35.5221C37.0077 36.4403 36.1258 37.182 35.034 37.182H25.5436V44.4219H35.034C36.1258 44.4219 37.0077 45.1636 37.0077 46.0818V54.0634Z" fill="white"/>
<path d="M26.132 16.9453C26.132 9.74075 33.1028 3.8429 41.7115 3.8429C50.3201 3.8429 57.2909 9.70543 57.2909 16.9453H60.9023C60.9023 8.04555 52.2937 0.805664 41.7115 0.805664C31.1292 0.805664 22.5206 8.04555 22.5206 16.9453H26.132Z" fill="white"/>
</svg>
